<svg width="50" height="48" viewBox="0 0 50 48" fill="none" xmlns="http://www.w3.org/2000/svg">
<path d="M26.4844 47.3832L15.1875 35.9926H15V11.9457H15.1875L26.4844 0.555099C27.4219 -0.382401 28.5938 -0.132401 30 1.3051V46.6801C28.5938 48.1176 27.4219 48.352 26.4844 47.3832ZM0 32.9926V14.9457C0 14.1332 0.289062 13.4301 0.867188 12.8363C1.44531 12.2426 2.15625 11.9457 3 11.9457H12V35.9926H3C2.15625 35.9926 1.44531 35.6957 0.867188 35.102C0.289062 34.5082 0 33.8051 0 32.9926Z" fill="white"/>
<path d="M43.685 38.0536C51.3516 30.3212 51.3334 17.7942 43.6265 10.0873C43.6154 10.0763 43.6025 10.0695 43.5914 10.059L43.5943 10.0561L42.7802 9.24107L42.7706 9.25067C42.5542 9.07738 42.2822 8.9887 42.0053 9.00115C41.7283 9.01361 41.4653 9.12634 41.2654 9.31835L41.2639 9.31691L41.2514 9.32939L41.2476 9.33275L41.2447 9.33659L39.9137 10.6671L39.9127 10.6681C39.9127 10.6684 39.9126 10.6686 39.9124 10.6688C39.9123 10.669 39.912 10.6691 39.9118 10.6691L39.8158 10.7651L39.8254 10.7747C39.6664 10.9767 39.5803 11.2266 39.5812 11.4837C39.5821 11.7409 39.6698 11.9902 39.8302 12.1911L39.821 12.2003L39.9122 12.2915V12.292L40.6356 13.0143L40.6486 13.0014C40.6591 13.0124 40.6663 13.0254 40.6774 13.0364C46.7575 19.1171 46.7767 28.9983 40.7359 35.1039L40.7278 35.0958L40.0058 35.8177L40.0044 35.8187L40.0034 35.8201L39.9132 35.9103L39.9223 35.9195C39.749 36.1359 39.6604 36.4079 39.6728 36.6849C39.6853 36.9618 39.798 37.2248 39.99 37.4248L39.9886 37.4262L40.0034 37.4411L40.0044 37.4425L40.0058 37.4435L40.6759 38.1136L40.6769 38.115L40.6783 38.1159L41.3388 38.7764L41.3398 38.7779L41.3412 38.7788L41.4362 38.8739L41.4458 38.8643C41.6479 39.0234 41.8979 39.1095 42.1551 39.1087C42.4123 39.1079 42.6617 39.0203 42.8628 38.86L42.8719 38.8691L43.6241 38.1164C43.6248 38.1157 43.6256 38.115 43.6265 38.1145L43.6351 38.1054L43.6865 38.054L43.685 38.0536Z" fill="white"/>
<path d="M38.1046 32.4736C42.6938 27.818 42.6756 20.2983 38.0455 15.6687C38.0345 15.6577 38.0215 15.651 38.0105 15.6399L38.0138 15.6366L37.1993 14.8215L37.1897 14.8311C36.9732 14.6581 36.7012 14.5695 36.4243 14.582C36.1474 14.5944 35.8845 14.707 35.6844 14.8988L35.683 14.8974L35.669 14.9113L35.6666 14.9132L35.6647 14.9156L34.3332 16.2471L34.3313 16.2486L34.3298 16.2505L34.2348 16.3455L34.2444 16.3551C34.0853 16.5572 33.9992 16.807 34 17.0641C34.0008 17.3213 34.0884 17.5706 34.2487 17.7716L34.2396 17.7807L34.3303 17.8715L34.3313 17.8724L34.3322 17.8734L35.0542 18.5958L35.0671 18.5828C35.0777 18.5939 35.0849 18.6068 35.0959 18.6179C38.0998 21.6212 38.1166 26.4932 35.153 29.522L35.1468 29.5158L34.4244 30.2382L34.4234 30.2387L34.423 30.2396L34.3322 30.3303L34.3414 30.3395C34.1682 30.5558 34.0796 30.8278 34.0921 31.1046C34.1045 31.3814 34.2172 31.6443 34.409 31.8443L34.4071 31.8462L35.7588 33.1974L35.8553 33.2939L35.8649 33.2843C36.067 33.4432 36.3168 33.5292 36.5739 33.5284C36.831 33.5276 37.0802 33.4401 37.2814 33.28L37.291 33.2895L38.0455 32.535L38.1055 32.475L38.1046 32.4736Z" fill="white"/>
</svg>
